{
  "accessors": [
    {
      "bufferView": 2,
      "componentType": 5126,
      "count": 2926,
      "max": [
        0.754280149936676,
        0.8330985903739929,
        0.31649547815322876
      ],
      "min": [
        -0.7542752623558044,
        -0.8904455900192261,
        -0.3885650932788849
      ],
      "type": "VEC3"
    },
    {
      "bufferView": 2,
      "byteOffset": 35112,
      "componentType": 5126,
      "count": 2926,
      "max": [
        1.0,
        1.0,
        1.0
      ],
      "min": [
        -1.0,
        -1.0,
        -1.0
      ],
      "type": "VEC3"
    },
    {
      "bufferView": 1,
      "componentType": 5126,
      "count": 2926,
      "max": [
        1.0006314516067505,
        1.0000001192092896
      ],
      "min": [
        0.0,
        0.0
      ],
      "type": "VEC2"
    },
    {
      "bufferView": 0,
      "componentType": 5125,
      "count": 3942,
      "type": "SCALAR"
    },
    {
      "bufferView": 2,
      "byteOffset": 70224,
      "componentType": 5126,
      "count": 2640,
      "max": [
        0.775874674320221,
        0.7355451583862305,
        0.24246102571487427
      ],
      "min": [
        -0.7758761048316956,
        -0.7155596017837524,
        -0.14308878779411316
      ],
      "type": "VEC3"
    },
    {
      "bufferView": 2,
      "byteOffset": 101904,
      "componentType": 5126,
      "count": 2640,
      "max": [
        0.9920775890350342,
        0.980749249458313,
        0.9822461009025574
      ],
      "min": [
        -0.9920779466629028,
        -0.981291651725769,
        -0.9920775890350342
      ],
      "type": "VEC3"
    },
    {
      "bufferView": 1,
      "byteOffset": 23408,
      "componentType": 5126,
      "count": 2640,
      "max": [
        1.0,
        0.47238200902938843
      ],
      "min": [
        0.04545449838042259,
        0.23619100451469421
      ],
      "type": "VEC2"
    },
    {
      "bufferView": 0,
      "byteOffset": 15768,
      "componentType": 5125,
      "count": 2640,
      "type": "SCALAR"
    },
    {
      "bufferView": 2,
      "byteOffset": 133584,
      "componentType": 5126,
      "count": 1404,
      "max": [
        0.6041659116744995,
        0.07187122106552124,
        0.09749820083379745
      ],
      "min": [
        -0.6042109131813049,
        -0.08682712912559509,
        -0.10368700325489044
      ],
      "type": "VEC3"
    },
    {
      "bufferView": 2,
      "byteOffset": 150432,
      "componentType": 5126,
      "count": 1404,
      "max": [
        0.9854125380516052,
        0.988659679889679,
        0.9938479661941528
      ],
      "min": [
        -0.9854125380516052,
        -0.9905656576156616,
        -0.9938479661941528
      ],
      "type": "VEC3"
    },
    {
      "bufferView": 1,
      "byteOffset": 44528,
      "componentType": 5126,
      "count": 1404,
      "max": [
        0.9879676103591919,
        0.5417369604110718
      ],
      "min": [
        0.0660589188337326,
        0.0
      ],
      "type": "VEC2"
    },
    {
      "bufferView": 0,
      "byteOffset": 26328,
      "componentType": 5125,
      "count": 1452,
      "type": "SCALAR"
    },
    {
      "bufferView": 2,
      "byteOffset": 167280,
      "componentType": 5126,
      "count": 588,
      "max": [
        0.5514293909072876,
        -0.015857461839914322,
        0.026475142687559128
      ],
      "min": [
        -0.5514744520187378,
        -0.047698162496089935,
        -0.06601764261722565
      ],
      "type": "VEC3"
    },
    {
      "bufferView": 2,
      "byteOffset": 174336,
      "componentType": 5126,
      "count": 588,
      "max": [
        0.9896661043167114,
        0.9945337772369385,
        0.9906274080276489
      ],
      "min": [
        -0.9896683692932129,
        -0.9987829923629761,
        -0.9785436391830444
      ],
      "type": "VEC3"
    },
    {
      "bufferView": 1,
      "byteOffset": 55760,
      "componentType": 5126,
      "count": 588,
      "max": [
        0.9794631004333496,
        0.47238200902938843
      ],
      "min": [
        0.011710604652762413,
        0.0
      ],
      "type": "VEC2"
    },
    {
      "bufferView": 0,
      "byteOffset": 32136,
      "componentType": 5125,
      "count": 588,
      "type": "SCALAR"
    },
    {
      "bufferView": 2,
      "byteOffset": 181392,
      "componentType": 5126,
      "count": 522,
      "max": [
        0.44286048412323,
        0.5038392543792725,
        0.33871185779571533
      ],
      "min": [
        -0.4384470283985138,
        -0.4814683496952057,
        -0.21772362291812897
      ],
      "type": "VEC3"
    },
    {
      "bufferView": 2,
      "byteOffset": 187656,
      "componentType": 5126,
      "count": 522,
      "max": [
        0.978314995765686,
        0.999759316444397,
        0.9852325320243835
      ],
      "min": [
        -0.9779217839241028,
        -0.9997593760490417,
        -1.0
      ],
      "type": "VEC3"
    },
    {
      "bufferView": 1,
      "byteOffset": 60464,
      "componentType": 5126,
      "count": 522,
      "max": [
        0.75,
        0.875
      ],
      "min": [
        0.25,
        0.3879184424877167
      ],
      "type": "VEC2"
    },
    {
      "bufferView": 0,
      "byteOffset": 34488,
      "componentType": 5125,
      "count": 768,
      "type": "SCALAR"
    },
    {
      "bufferView": 2,
      "byteOffset": 193920,
      "componentType": 5126,
      "count": 735,
      "max": [
        0.23112612962722778,
        0.19165419042110443,
        0.20252808928489685
      ],
      "min": [
        -0.23116877675056458,
        -0.29261261224746704,
        -0.2502393424510956
      ],
      "type": "VEC3"
    },
    {
      "bufferView": 2,
      "byteOffset": 202740,
      "componentType": 5126,
      "count": 735,
      "max": [
        1.0,
        0.9780743718147278,
        0.995391309261322
      ],
      "min": [
        -1.0,
        -0.9781215786933899,
        -0.9781058430671692
      ],
      "type": "VEC3"
    },
    {
      "bufferView": 1,
      "byteOffset": 64640,
      "componentType": 5126,
      "count": 735,
      "max": [
        0.9922478795051575,
        0.9706377983093262
      ],
      "min": [
        -1.862645149230957e-07,
        0.06358478218317032
      ],
      "type": "VEC2"
    },
    {
      "bufferView": 0,
      "byteOffset": 37560,
      "componentType": 5125,
      "count": 1203,
      "type": "SCALAR"
    },
    {
      "bufferView": 2,
      "byteOffset": 211560,
      "componentType": 5126,
      "count": 307,
      "max": [
        0.1978830248117447,
        -0.00620478019118309,
        0.19909259676933289
      ],
      "min": [
        -0.1980552077293396,
        -0.09757406264543533,
        -0.18814732134342194
      ],
      "type": "VEC3"
    },
    {
      "bufferView": 2,
      "byteOffset": 215244,
      "componentType": 5126,
      "count": 307,
      "max": [
        0.6702263355255127,
        -0.5822518467903137,
        0.8090702295303345
      ],
      "min": [
        -0.6636236906051636,
        -0.9781084656715393,
        -0.4919319152832031
      ],
      "type": "VEC3"
    },
    {
      "bufferView": 1,
      "byteOffset": 70520,
      "componentType": 5126,
      "count": 307,
      "max": [
        0.9922478795051575,
        1.0
      ],
      "min": [
        0.003875837894156575,
        0.023546727374196053
      ],
      "type": "VEC2"
    },
    {
      "bufferView": 0,
      "byteOffset": 42372,
      "componentType": 5125,
      "count": 489,
      "type": "SCALAR"
    },
    {
      "bufferView": 2,
      "byteOffset": 218928,
      "componentType": 5126,
      "count": 20,
      "max": [
        0.06466042250394821,
        0.04307673126459122,
        0.052405960857868195
      ],
      "min": [
        -0.06453398615121841,
        0.016147758811712265,
        -0.07410207390785217
      ],
      "type": "VEC3"
    },
    {
      "bufferView": 2,
      "byteOffset": 219168,
      "componentType": 5126,
      "count": 20,
      "max": [
        -4.2638924924176536e-07,
        -0.9781032800674438,
        0.2081202268600464
      ],
      "min": [
        -4.2638924924176536e-07,
        -0.9781032800674438,
        0.2081202268600464
      ],
      "type": "VEC3"
    },
    {
      "bufferView": 1,
      "byteOffset": 72976,
      "componentType": 5126,
      "count": 20,
      "max": [
        0.34612351655960083,
        0.34448766708374023
      ],
      "min": [
        0.1555141657590866,
        0.15387651324272156
      ],
      "type": "VEC2"
    },
    {
      "bufferView": 0,
      "byteOffset": 44328,
      "componentType": 5125,
      "count": 54,
      "type": "SCALAR"
    },
    {
      "bufferView": 2,
      "byteOffset": 219408,
      "componentType": 5126,
      "count": 3754,
      "max": [
        0.21333160996437073,
        0.22957181930541992,
        0.1228046864271164
      ],
      "min": [
        -0.2133232206106186,
        -0.22217553853988647,
        -0.10207569599151611
      ],
      "type": "VEC3"
    },
    {
      "bufferView": 2,
      "byteOffset": 264456,
      "componentType": 5126,
      "count": 3754,
      "max": [
        1.0,
        0.9996629953384399,
        0.9988528490066528
      ],
      "min": [
        -1.0,
        -0.9966803193092346,
        -0.9955316781997681
      ],
      "type": "VEC3"
    },
    {
      "bufferView": 1,
      "byteOffset": 73136,
      "componentType": 5126,
      "count": 3754,
      "max": [
        1.0,
        1.0
      ],
      "min": [
        -1.862645149230957e-07,
        0.01000000536441803
      ],
      "type": "VEC2"
    },
    {
      "bufferView": 0,
      "byteOffset": 44544,
      "componentType": 5125,
      "count": 4194,
      "type": "SCALAR"
    },
    {
      "bufferView": 2,
      "byteOffset": 309504,
      "componentType": 5126,
      "count": 2148,
      "max": [
        0.21333160996437073,
        0.19129528105258942,
        0.10537026077508926
      ],
      "min": [
        -0.2133232057094574,
        -0.22217553853988647,
        -0.09105777740478516
      ],
      "type": "VEC3"
    },
    {
      "bufferView": 2,
      "byteOffset": 335280,
      "componentType": 5126,
      "count": 2148,
      "max": [
        0.9914449453353882,
        0.9704849123954773,
        0.9994543790817261
      ],
      "min": [
        -0.991445004940033,
        -0.9701433181762695,
        -0.9785144925117493
      ],
      "type": "VEC3"
    },
    {
      "bufferView": 1,
      "byteOffset": 103168,
      "componentType": 5126,
      "count": 2148,
      "max": [
        0.9900000095367432,
        0.49000000953674316
      ],
      "min": [
        0.06095733866095543,
        0.01000000536441803
      ],
      "type": "VEC2"
    },
    {
      "bufferView": 0,
      "byteOffset": 61320,
      "componentType": 5125,
      "count": 2964,
      "type": "SCALAR"
    },
    {
      "bufferView": 2,
      "byteOffset": 361056,
      "componentType": 5126,
      "count": 7632,
      "max": [
        0.04721490293741226,
        0.07748156040906906,
        0.11582744121551514
      ],
      "min": [
        -0.05662645772099495,
        -0.07748164981603622,
        -0.11998879909515381
      ],
      "type": "VEC3"
    },
    {
      "bufferView": 2,
      "byteOffset": 452640,
      "componentType": 5126,
      "count": 7632,
      "max": [
        0.9964703321456909,
        0.9825084209442139,
        0.9977247714996338
      ],
      "min": [
        -0.9964702129364014,
        -0.9825080633163452,
        -0.9975661635398865
      ],
      "type": "VEC3"
    },
    {
      "bufferView": 1,
      "byteOffset": 120352,
      "componentType": 5126,
      "count": 7632,
      "max": [
        1.0,
        1.0000001192092896
      ],
      "min": [
        -1.862645149230957e-07,
        0.01000000536441803
      ],
      "type": "VEC2"
    },
    {
      "bufferView": 0,
      "byteOffset": 73176,
      "componentType": 5125,
      "count": 11628,
      "type": "SCALAR"
    },
    {
      "bufferView": 2,
      "byteOffset": 544224,
      "componentType": 5126,
      "count": 480,
      "max": [
        0.27463477849960327,
        0.2848384380340576,
        0.0685860812664032
      ],
      "min": [
        -0.2746345102787018,
        -0.28394821286201477,
        -0.07270827889442444
      ],
      "type": "VEC3"
    },
    {
      "bufferView": 2,
      "byteOffset": 549984,
      "componentType": 5126,
      "count": 480,
      "max": [
        0.9920772910118103,
        0.9891904592514038,
        0.9862784147262573
      ],
      "min": [
        -0.9920775294303894,
        -0.9022935032844543,
        -0.05647879093885422
      ],
      "type": "VEC3"
    },
    {
      "bufferView": 1,
      "byteOffset": 181408,
      "componentType": 5126,
      "count": 480,
      "max": [
        1.0,
        0.47238200902938843
      ],
      "min": [
        0.04545449838042259,
        0.23619100451469421
      ],
      "type": "VEC2"
    },
    {
      "bufferView": 0,
      "byteOffset": 119688,
      "componentType": 5125,
      "count": 480,
      "type": "SCALAR"
    },
    {
      "bufferView": 2,
      "byteOffset": 555744,
      "componentType": 5126,
      "count": 2226,
      "max": [
        0.6484678983688354,
        0.6509373784065247,
        0.21447831392288208
      ],
      "min": [
        -0.6484631896018982,
        -0.6509881615638733,
        -0.2144516259431839
      ],
      "type": "VEC3"
    },
    {
      "bufferView": 2,
      "byteOffset": 582456,
      "componentType": 5126,
      "count": 2226,
      "max": [
        1.0,
        0.996465802192688,
        0.9968540072441101
      ],
      "min": [
        -1.0,
        -0.9950852394104004,
        -0.9947241544723511
      ],
      "type": "VEC3"
    },
    {
      "bufferView": 1,
      "byteOffset": 185248,
      "componentType": 5126,
      "count": 2226,
      "max": [
        1.0,
        1.0
      ],
      "min": [
        -1.862645149230957e-07,
        0.01000000536441803
      ],
      "type": "VEC2"
    },
    {
      "bufferView": 0,
      "byteOffset": 121608,
      "componentType": 5125,
      "count": 3150,
      "type": "SCALAR"
    },
    {
      "bufferView": 2,
      "byteOffset": 609168,
      "componentType": 5126,
      "count": 1104,
      "max": [
        9.516304016113281,
        3.3086469173431396,
        27.782251358032227
      ],
      "min": [
        -10.558635711669922,
        -3.3083298206329346,
        -27.671024322509766
      ],
      "type": "VEC3"
    },
    {
      "bufferView": 2,
      "byteOffset": 622416,
      "componentType": 5126,
      "count": 1104,
      "max": [
        1.0,
        1.0,
        1.0
      ],
      "min": [
        -1.0,
        -1.0,
        -1.0
      ],
      "type": "VEC3"
    },
    {
      "bufferView": 1,
      "byteOffset": 203056,
      "componentType": 5126,
      "count": 1104,
      "max": [
        0.875,
        1.0
      ],
      "min": [
        0.125,
        0.0
      ],
      "type": "VEC2"
    },
    {
      "bufferView": 0,
      "byteOffset": 134208,
      "componentType": 5125,
      "count": 1656,
      "type": "SCALAR"
    }
  ],
  "asset": {
    "extras": {
      "author": "MrEliptik (https://sketchfab.com/mreliptik)",
      "license": "CC-BY-4.0 (http://creativecommons.org/licenses/by/4.0/)",
      "source": "https://sketchfab.com/3d-models/low-poly-stylized-tank-230812ff2fa74aecbd4eb6e312302b52",
      "title": "Low poly stylized tank"
    },
    "generator": "Sketchfab-12.68.0",
    "version": "2.0"
  },
  "bufferViews": [
    {
      "buffer": 0,
      "byteLength": 140832,
      "name": "floatBufferViews",
      "target": 34963
    },
    {
      "buffer": 0,
      "byteLength": 211888,
      "byteOffset": 140832,
      "byteStride": 8,
      "name": "floatBufferViews",
      "target": 34962
    },
    {
      "buffer": 0,
      "byteLength": 635664,
      "byteOffset": 352720,
      "byteStride": 12,
      "name": "floatBufferViews",
      "target": 34962
    }
  ],
  "buffers": [
    {
      "byteLength": 988384,
      "uri": "scene.bin"
    }
  ],
  "materials": [
    {
      "doubleSided": true,
      "name": "Black",
      "pbrMetallicRoughness": {
        "baseColorFactor": [
          0.0042419,
          0.0042419,
          0.0042419,
          1.0
        ],
        "metallicFactor": 0.0,
        "roughnessFactor": 0.99957581
      }
    },
    {
      "doubleSided": true,
      "name": "White",
      "pbrMetallicRoughness": {
        "baseColorFactor": [
          0.814043,
          0.779427,
          0.805172,
          1.0
        ],
        "metallicFactor": 0.0,
        "roughnessFactor": 0.9156903265691789
      }
    },
    {
      "doubleSided": true,
      "emissiveFactor": [
        1.0,
        1.0,
        0.0
      ],
      "name": "Lights",
      "pbrMetallicRoughness": {
        "baseColorFactor": [
          0.8,
          0.8,
          0.8,
          1.0
        ],
        "metallicFactor": 0.0,
        "roughnessFactor": 0.8040408205773457
      }
    },
    {
      "doubleSided": true,
      "name": "Explosion",
      "pbrMetallicRoughness": {
        "baseColorFactor": [
          0.8,
          0.8,
          0.8,
          1.0
        ],
        "metallicFactor": 0.0,
        "roughnessFactor": 0.8040408205773457
      }
    }
  ],
  "meshes": [
    {
      "name": "Base.014_Black_0",
      "primitives": [
        {
          "attributes": {
            "NORMAL": 1,
            "POSITION": 0,
            "TEXCOORD_0": 2
          },
          "indices": 3,
          "material": 0,
          "mode": 4
        }
      ]
    },
    {
      "name": "Bolts.007_White_0",
      "primitives": [
        {
          "attributes": {
            "NORMAL": 5,
            "POSITION": 4,
            "TEXCOORD_0": 6
          },
          "indices": 7,
          "material": 1,
          "mode": 4
        }
      ]
    },
    {
      "name": "Lights.008_White_0",
      "primitives": [
        {
          "attributes": {
            "NORMAL": 9,
            "POSITION": 8,
            "TEXCOORD_0": 10
          },
          "indices": 11,
          "material": 1,
          "mode": 4
        }
      ]
    },
    {
      "name": "Lights.008_Lights_0",
      "primitives": [
        {
          "attributes": {
            "NORMAL": 13,
            "POSITION": 12,
            "TEXCOORD_0": 14
          },
          "indices": 15,
          "material": 2,
          "mode": 4
        }
      ]
    },
    {
      "name": "Turret.014_Black_0",
      "primitives": [
        {
          "attributes": {
            "NORMAL": 17,
            "POSITION": 16,
            "TEXCOORD_0": 18
          },
          "indices": 19,
          "material": 0,
          "mode": 4
        }
      ]
    },
    {
      "name": "Canon.014_Black_0",
      "primitives": [
        {
          "attributes": {
            "NORMAL": 21,
            "POSITION": 20,
            "TEXCOORD_0": 22
          },
          "indices": 23,
          "material": 0,
          "mode": 4
        }
      ]
    },
    {
      "name": "Canon.014_White_0",
      "primitives": [
        {
          "attributes": {
            "NORMAL": 25,
            "POSITION": 24,
            "TEXCOORD_0": 26
          },
          "indices": 27,
          "material": 1,
          "mode": 4
        }
      ]
    },
    {
      "name": "Canon.014_Explosion_0",
      "primitives": [
        {
          "attributes": {
            "NORMAL": 29,
            "POSITION": 28,
            "TEXCOORD_0": 30
          },
          "indices": 31,
          "material": 3,
          "mode": 4
        }
      ]
    },
    {
      "name": "Entrance.014_Black_0",
      "primitives": [
        {
          "attributes": {
            "NORMAL": 33,
            "POSITION": 32,
            "TEXCOORD_0": 34
          },
          "indices": 35,
          "material": 0,
          "mode": 4
        }
      ]
    },
    {
      "name": "Entrance.014_White_0",
      "primitives": [
        {
          "attributes": {
            "NORMAL": 37,
            "POSITION": 36,
            "TEXCOORD_0": 38
          },
          "indices": 39,
          "material": 1,
          "mode": 4
        }
      ]
    },
    {
      "name": "Ladder.012_White_0",
      "primitives": [
        {
          "attributes": {
            "NORMAL": 41,
            "POSITION": 40,
            "TEXCOORD_0": 42
          },
          "indices": 43,
          "material": 1,
          "mode": 4
        }
      ]
    },
    {
      "name": "Bolts.008_White_0",
      "primitives": [
        {
          "attributes": {
            "NORMAL": 45,
            "POSITION": 44,
            "TEXCOORD_0": 46
          },
          "indices": 47,
          "material": 1,
          "mode": 4
        }
      ]
    },
    {
      "name": "Wheels.024_Black_0",
      "primitives": [
        {
          "attributes": {
            "NORMAL": 49,
            "POSITION": 48,
            "TEXCOORD_0": 50
          },
          "indices": 51,
          "material": 0,
          "mode": 4
        }
      ]
    },
    {
      "name": "Tracks.018_Black_0",
      "primitives": [
        {
          "attributes": {
            "NORMAL": 53,
            "POSITION": 52,
            "TEXCOORD_0": 54
          },
          "indices": 55,
          "material": 0,
          "mode": 4
        }
      ]
    }
  ],
  "nodes": [
    {
      "children": [
        1
      ],
      "matrix": [
        1.0,
        0.0,
        0.0,
        0.0,
        0.0,
        2.220446049250313e-16,
        -1.0,
        0.0,
        0.0,
        1.0,
        2.220446049250313e-16,
        0.0,
        0.0,
        0.0,
        0.0,
        1.0
      ],
      "name": "Sketchfab_model"
    },
    {
      "children": [
        2
      ],
      "matrix": [
        1.0,
        0.0,
        0.0,
        0.0,
        0.0,
        0.0,
        1.0,
        0.0,
        0.0,
        -1.0,
        0.0,
        0.0,
        0.0,
        0.0,
        0.0,
        1.0
      ],
      "name": "tank_1_bw.fbx"
    },
    {
      "children": [
        3
      ],
      "name": "RootNode"
    },
    {
      "children": [
        4,
        5,
        7,
        10,
        23,
        25
      ],
      "matrix": [
        100.0,
        0.0,
        0.0,
        0.0,
        -0.0,
        -1.629206793918314e-05,
        -99.99999999999868,
        0.0,
        0.0,
        99.99999999999868,
        -1.629206793918314e-05,
        0.0,
        -0.7098246812820435,
        8.859400749206543,
        0.36267727613449097,
        1.0
      ],
      "name": "Base.014"
    },
    {
      "mesh": 0,
      "name": "Base.014_Black_0"
    },
    {
      "children": [
        6
      ],
      "matrix": [
        1.0,
        0.0,
        0.0,
        0.0,
        0.0,
        1.0,
        -2.646977960169688e-23,
        0.0,
        0.0,
        2.646977960169688e-23,
        1.0,
        0.0,
        1.02287158370018e-05,
        0.02442278526723385,
        0.08742637932300568,
        1.0
      ],
      "name": "Bolts.007"
    },
    {
      "mesh": 1,
      "name": "Bolts.007_White_0"
    },
    {
      "children": [
        8,
        9
      ],
      "matrix": [
        1.0,
        0.0,
        0.0,
        0.0,
        0.0,
        1.0,
        -2.646977960169688e-23,
        0.0,
        0.0,
        2.646977960169688e-23,
        1.0,
        0.0,
        3.2537151128053665e-05,
        -0.8296491503715515,
        0.11666224896907806,
        1.0
      ],
      "name": "Lights.008"
    },
    {
      "mesh": 2,
      "name": "Lights.008_White_0"
    },
    {
      "mesh": 3,
      "name": "Lights.008_Lights_0"
    },
    {
      "children": [
        11,
        12,
        16,
        19,
        21
      ],
      "matrix": [
        1.0,
        0.0,
        0.0,
        0.0,
        0.0,
        1.0,
        -2.646977960169688e-23,
        0.0,
        0.0,
        2.646977960169688e-23,
        1.0,
        0.0,
        -0.0020217574201524258,
        0.02056826464831829,
        0.5078884959220886,
        1.0
      ],
      "name": "Turret.014"
    },
    {
      "mesh": 4,
      "name": "Turret.014_Black_0"
    },
    {
      "children": [
        13,
        14,
        15
      ],
      "matrix": [
        1.0,
        0.0,
        0.0,
        0.0,
        0.0,
        1.0,
        -2.646977960169688e-23,
        0.0,
        0.0,
        2.646977960169688e-23,
        1.0,
        0.0,
        0.0020527755841612816,
        -0.4701359272003174,
        0.07677656412124634,
        1.0
      ],
      "name": "Canon.014"
    },
    {
      "mesh": 5,
      "name": "Canon.014_Black_0"
    },
    {
      "mesh": 6,
      "name": "Canon.014_White_0"
    },
    {
      "mesh": 7,
      "name": "Canon.014_Explosion_0"
    },
    {
      "children": [
        17,
        18
      ],
      "matrix": [
        1.0,
        0.0,
        0.0,
        0.0,
        0.0,
        1.0,
        -2.646977960169688e-23,
        0.0,
        0.0,
        2.646977960169688e-23,
        1.0,
        0.0,
        -2.5607645511627197e-05,
        0.039628803730010986,
        0.30443477630615234,
        1.0
      ],
      "name": "Entrance.014"
    },
    {
      "mesh": 8,
      "name": "Entrance.014_Black_0"
    },
    {
      "mesh": 9,
      "name": "Entrance.014_White_0"
    },
    {
      "children": [
        20
      ],
      "matrix": [
        1.0,
        0.0,
        0.0,
        0.0,
        0.0,
        1.0,
        -2.646977960169688e-23,
        0.0,
        0.0,
        2.646977960169688e-23,
        1.0,
        0.0,
        0.4052475094795227,
        0.025594618171453476,
        0.023478269577026367,
        1.0
      ],
      "name": "Ladder.012"
    },
    {
      "mesh": 10,
      "name": "Ladder.012_White_0"
    },
    {
      "children": [
        22
      ],
      "matrix": [
        1.0,
        0.0,
        0.0,
        0.0,
        0.0,
        1.0,
        -2.646977960169688e-23,
        0.0,
        0.0,
        2.646977960169688e-23,
        1.0,
        0.0,
        0.0020311009138822556,
        0.01862543821334839,
        0.25166600942611694,
        1.0
      ],
      "name": "Bolts.008"
    },
    {
      "mesh": 11,
      "name": "Bolts.008_White_0"
    },
    {
      "children": [
        24
      ],
      "matrix": [
        1.0,
        0.0,
        0.0,
        0.0,
        0.0,
        1.0,
        -2.646977960169688e-23,
        0.0,
        0.0,
        2.646977960169688e-23,
        1.0,
        0.0,
        5.877111107110977e-06,
        0.05627075210213661,
        -0.34833770990371704,
        1.0
      ],
      "name": "Wheels.024"
    },
    {
      "mesh": 12,
      "name": "Wheels.024_Black_0"
    },
    {
      "children": [
        26
      ],
      "matrix": [
        0.06711649894714355,
        0.0,
        0.0,
        0.0,
        0.0,
        0.1998399943113327,
        0.0,
        0.0,
        0.0,
        0.0,
        0.008313787169754505,
        0.0,
        0.034978754818439484,
        0.05913716182112694,
        -0.34743183851242065,
        1.0
      ],
      "name": "Tracks.018"
    },
    {
      "mesh": 13,
      "name": "Tracks.018_Black_0"
    }
  ],
  "scene": 0,
  "scenes": [
    {
      "name": "Sketchfab_Scene",
      "nodes": [
        0
      ]
    }
  ]
}
